<mxfile modified="2023-03-15T22:05:49.421Z" host="Electron" agent="5.0 (Windows NT 10.0; Win64; x64) AppleWebKit/537.36 (KHTML, like Gecko) draw.io/20.3.0 Chrome/104.0.5112.114 Electron/20.1.3 Safari/537.36" etag="-9YO9Gjesq1iyfE9-y0v" compressed="false" version="20.3.0" type="device">
  <diagram id="o49DG4Oq8SQpZfKKDETI" name="Groups">
    <mxGraphModel dx="782" dy="517" grid="1" gridSize="10" guides="1" tooltips="1" connect="1" arrows="1" fold="1" page="1" pageScale="1" pageWidth="827" pageHeight="1169" math="0" shadow="0">
      <root>
        <mxCell id="j6knT0nZRkXW4mcYXSD3-0" />
        <mxCell id="j6knT0nZRkXW4mcYXSD3-1" parent="j6knT0nZRkXW4mcYXSD3-0" />
        <mxCell id="6PIFf8ajAKC9fmQvCD9o-0" value="" style="fontStyle=1;align=center;verticalAlign=top;childLayout=stackLayout;horizontal=1;horizontalStack=0;resizeParent=1;resizeParentMax=0;resizeLast=0;marginBottom=0;strokeColor=#82b366;strokeWidth=2;fillColor=none;" parent="j6knT0nZRkXW4mcYXSD3-1" vertex="1">
          <mxGeometry x="440" y="220" width="110" height="63" as="geometry" />
        </mxCell>
        <mxCell id="6PIFf8ajAKC9fmQvCD9o-1" value="Define Group as&amp;nbsp;&lt;br&gt;Organisation" style="html=1;align=left;spacingLeft=4;verticalAlign=middle;strokeColor=none;fillColor=none;fontStyle=1" parent="6PIFf8ajAKC9fmQvCD9o-0" vertex="1">
          <mxGeometry width="110" height="30" as="geometry" />
        </mxCell>
        <mxCell id="6PIFf8ajAKC9fmQvCD9o-2" value="" style="shape=ellipse;" parent="6PIFf8ajAKC9fmQvCD9o-1" vertex="1">
          <mxGeometry x="1" width="10" height="16" relative="1" as="geometry">
            <mxPoint x="-25" y="7" as="offset" />
          </mxGeometry>
        </mxCell>
        <mxCell id="6PIFf8ajAKC9fmQvCD9o-3" value="" style="line;strokeWidth=1;fillColor=none;align=left;verticalAlign=middle;spacingTop=-1;spacingLeft=3;spacingRight=3;rotatable=0;labelPosition=right;points=[];portConstraint=eastwest;" parent="6PIFf8ajAKC9fmQvCD9o-0" vertex="1">
          <mxGeometry y="30" width="110" height="8" as="geometry" />
        </mxCell>
        <mxCell id="6PIFf8ajAKC9fmQvCD9o-4" value="." style="html=1;align=center;spacingLeft=4;verticalAlign=top;strokeColor=none;fillColor=none;" parent="6PIFf8ajAKC9fmQvCD9o-0" vertex="1">
          <mxGeometry y="38" width="110" height="25" as="geometry" />
        </mxCell>
        <mxCell id="6PIFf8ajAKC9fmQvCD9o-8" style="edgeStyle=none;rounded=0;orthogonalLoop=1;jettySize=auto;html=1;entryX=1;entryY=0.5;entryDx=0;entryDy=0;endArrow=block;endFill=0;" parent="j6knT0nZRkXW4mcYXSD3-1" source="6PIFf8ajAKC9fmQvCD9o-5" target="6PIFf8ajAKC9fmQvCD9o-6" edge="1">
          <mxGeometry relative="1" as="geometry" />
        </mxCell>
        <mxCell id="6PIFf8ajAKC9fmQvCD9o-16" style="edgeStyle=none;rounded=0;orthogonalLoop=1;jettySize=auto;html=1;entryX=0;entryY=0.5;entryDx=0;entryDy=0;endArrow=open;endFill=0;" parent="j6knT0nZRkXW4mcYXSD3-1" source="6PIFf8ajAKC9fmQvCD9o-5" target="6PIFf8ajAKC9fmQvCD9o-11" edge="1">
          <mxGeometry relative="1" as="geometry" />
        </mxCell>
        <mxCell id="5Is_r8HkHz4zZijzst__-0" style="edgeStyle=none;rounded=0;orthogonalLoop=1;jettySize=auto;html=1;entryX=0;entryY=0.5;entryDx=0;entryDy=0;endArrow=open;endFill=0;" parent="j6knT0nZRkXW4mcYXSD3-1" source="6PIFf8ajAKC9fmQvCD9o-5" target="6PIFf8ajAKC9fmQvCD9o-19" edge="1">
          <mxGeometry relative="1" as="geometry" />
        </mxCell>
        <mxCell id="6PIFf8ajAKC9fmQvCD9o-5" value="&lt;p style=&quot;line-height: 100%&quot;&gt;&amp;lt;&amp;lt;actor&amp;gt;&amp;gt;&lt;br&gt;&lt;br&gt;&lt;b&gt;Authenticated&lt;br&gt;User&lt;br&gt;(Group&lt;br&gt;Accountable)&lt;/b&gt;&lt;/p&gt;" style="text;html=1;align=center;verticalAlign=middle;dashed=0;strokeColor=#000000;strokeWidth=2;" parent="j6knT0nZRkXW4mcYXSD3-1" vertex="1">
          <mxGeometry x="220" y="293" width="80" height="77" as="geometry" />
        </mxCell>
        <mxCell id="6PIFf8ajAKC9fmQvCD9o-6" value="&lt;p style=&quot;line-height: 100%&quot;&gt;&amp;lt;&amp;lt;actor&amp;gt;&amp;gt;&lt;br&gt;&lt;br&gt;&lt;b&gt;Authenticated&lt;br&gt;User&lt;/b&gt;&lt;/p&gt;" style="text;html=1;align=center;verticalAlign=middle;dashed=0;strokeColor=#000000;strokeWidth=2;" parent="j6knT0nZRkXW4mcYXSD3-1" vertex="1">
          <mxGeometry x="120" y="293" width="80" height="77" as="geometry" />
        </mxCell>
        <mxCell id="6PIFf8ajAKC9fmQvCD9o-11" value="" style="fontStyle=1;align=center;verticalAlign=top;childLayout=stackLayout;horizontal=1;horizontalStack=0;resizeParent=1;resizeParentMax=0;resizeLast=0;marginBottom=0;strokeColor=#82b366;strokeWidth=2;fillColor=none;" parent="j6knT0nZRkXW4mcYXSD3-1" vertex="1">
          <mxGeometry x="320" y="310" width="110" height="63" as="geometry" />
        </mxCell>
        <mxCell id="6PIFf8ajAKC9fmQvCD9o-12" value="Edit Group&lt;br&gt;Profile" style="html=1;align=left;spacingLeft=4;verticalAlign=middle;strokeColor=none;fillColor=none;fontStyle=1" parent="6PIFf8ajAKC9fmQvCD9o-11" vertex="1">
          <mxGeometry width="110" height="30" as="geometry" />
        </mxCell>
        <mxCell id="6PIFf8ajAKC9fmQvCD9o-13" value="" style="shape=ellipse;" parent="6PIFf8ajAKC9fmQvCD9o-12" vertex="1">
          <mxGeometry x="1" width="10" height="16" relative="1" as="geometry">
            <mxPoint x="-25" y="7" as="offset" />
          </mxGeometry>
        </mxCell>
        <mxCell id="6PIFf8ajAKC9fmQvCD9o-14" value="" style="line;strokeWidth=1;fillColor=none;align=left;verticalAlign=middle;spacingTop=-1;spacingLeft=3;spacingRight=3;rotatable=0;labelPosition=right;points=[];portConstraint=eastwest;" parent="6PIFf8ajAKC9fmQvCD9o-11" vertex="1">
          <mxGeometry y="30" width="110" height="8" as="geometry" />
        </mxCell>
        <mxCell id="6PIFf8ajAKC9fmQvCD9o-15" value="." style="html=1;align=center;spacingLeft=4;verticalAlign=top;strokeColor=none;fillColor=none;" parent="6PIFf8ajAKC9fmQvCD9o-11" vertex="1">
          <mxGeometry y="38" width="110" height="25" as="geometry" />
        </mxCell>
        <mxCell id="6PIFf8ajAKC9fmQvCD9o-18" value="" style="fontStyle=1;align=center;verticalAlign=top;childLayout=stackLayout;horizontal=1;horizontalStack=0;resizeParent=1;resizeParentMax=0;resizeLast=0;marginBottom=0;strokeColor=#82b366;strokeWidth=2;fillColor=none;" parent="j6knT0nZRkXW4mcYXSD3-1" vertex="1">
          <mxGeometry x="320" y="409" width="110" height="63" as="geometry" />
        </mxCell>
        <mxCell id="6PIFf8ajAKC9fmQvCD9o-19" value="Retire &lt;br&gt;Group" style="html=1;align=left;spacingLeft=4;verticalAlign=middle;strokeColor=none;fillColor=none;fontStyle=1" parent="6PIFf8ajAKC9fmQvCD9o-18" vertex="1">
          <mxGeometry width="110" height="30" as="geometry" />
        </mxCell>
        <mxCell id="6PIFf8ajAKC9fmQvCD9o-20" value="" style="shape=ellipse;" parent="6PIFf8ajAKC9fmQvCD9o-19" vertex="1">
          <mxGeometry x="1" width="10" height="16" relative="1" as="geometry">
            <mxPoint x="-25" y="7" as="offset" />
          </mxGeometry>
        </mxCell>
        <mxCell id="6PIFf8ajAKC9fmQvCD9o-21" value="" style="line;strokeWidth=1;fillColor=none;align=left;verticalAlign=middle;spacingTop=-1;spacingLeft=3;spacingRight=3;rotatable=0;labelPosition=right;points=[];portConstraint=eastwest;" parent="6PIFf8ajAKC9fmQvCD9o-18" vertex="1">
          <mxGeometry y="30" width="110" height="8" as="geometry" />
        </mxCell>
        <mxCell id="6PIFf8ajAKC9fmQvCD9o-22" value="." style="html=1;align=center;spacingLeft=4;verticalAlign=top;strokeColor=none;fillColor=none;" parent="6PIFf8ajAKC9fmQvCD9o-18" vertex="1">
          <mxGeometry y="38" width="110" height="25" as="geometry" />
        </mxCell>
        <mxCell id="6PIFf8ajAKC9fmQvCD9o-24" style="edgeStyle=none;rounded=0;orthogonalLoop=1;jettySize=auto;html=1;entryX=0.015;entryY=-0.299;entryDx=0;entryDy=0;entryPerimeter=0;endArrow=open;endFill=0;" parent="j6knT0nZRkXW4mcYXSD3-1" source="6PIFf8ajAKC9fmQvCD9o-23" target="6PIFf8ajAKC9fmQvCD9o-22" edge="1">
          <mxGeometry relative="1" as="geometry" />
        </mxCell>
        <mxCell id="6PIFf8ajAKC9fmQvCD9o-25" style="edgeStyle=none;rounded=0;orthogonalLoop=1;jettySize=auto;html=1;entryX=1;entryY=1;entryDx=0;entryDy=0;endArrow=block;endFill=0;" parent="j6knT0nZRkXW4mcYXSD3-1" source="6PIFf8ajAKC9fmQvCD9o-23" target="6PIFf8ajAKC9fmQvCD9o-6" edge="1">
          <mxGeometry relative="1" as="geometry" />
        </mxCell>
        <mxCell id="6PIFf8ajAKC9fmQvCD9o-23" value="&lt;p style=&quot;line-height: 100%&quot;&gt;&amp;lt;&amp;lt;actor&amp;gt;&amp;gt;&lt;br&gt;&lt;br&gt;&lt;b&gt;Daemon&lt;/b&gt;&lt;/p&gt;" style="text;html=1;align=center;verticalAlign=middle;dashed=0;strokeColor=#000000;strokeWidth=2;" parent="j6knT0nZRkXW4mcYXSD3-1" vertex="1">
          <mxGeometry x="220" y="402" width="80" height="77" as="geometry" />
        </mxCell>
        <mxCell id="5Is_r8HkHz4zZijzst__-1" value="" style="fontStyle=1;align=center;verticalAlign=top;childLayout=stackLayout;horizontal=1;horizontalStack=0;resizeParent=1;resizeParentMax=0;resizeLast=0;marginBottom=0;strokeColor=#82b366;strokeWidth=2;fillColor=none;" parent="j6knT0nZRkXW4mcYXSD3-1" vertex="1">
          <mxGeometry x="320" y="220" width="110" height="63" as="geometry" />
        </mxCell>
        <mxCell id="5Is_r8HkHz4zZijzst__-2" value="Create Group" style="html=1;align=left;spacingLeft=4;verticalAlign=middle;strokeColor=none;fillColor=none;fontStyle=1" parent="5Is_r8HkHz4zZijzst__-1" vertex="1">
          <mxGeometry width="110" height="30" as="geometry" />
        </mxCell>
        <mxCell id="5Is_r8HkHz4zZijzst__-3" value="" style="shape=ellipse;" parent="5Is_r8HkHz4zZijzst__-2" vertex="1">
          <mxGeometry x="1" width="10" height="16" relative="1" as="geometry">
            <mxPoint x="-25" y="7" as="offset" />
          </mxGeometry>
        </mxCell>
        <mxCell id="5Is_r8HkHz4zZijzst__-4" value="" style="line;strokeWidth=1;fillColor=none;align=left;verticalAlign=middle;spacingTop=-1;spacingLeft=3;spacingRight=3;rotatable=0;labelPosition=right;points=[];portConstraint=eastwest;" parent="5Is_r8HkHz4zZijzst__-1" vertex="1">
          <mxGeometry y="30" width="110" height="8" as="geometry" />
        </mxCell>
        <mxCell id="5Is_r8HkHz4zZijzst__-5" value="." style="html=1;align=center;spacingLeft=4;verticalAlign=top;strokeColor=none;fillColor=none;" parent="5Is_r8HkHz4zZijzst__-1" vertex="1">
          <mxGeometry y="38" width="110" height="25" as="geometry" />
        </mxCell>
        <mxCell id="5Is_r8HkHz4zZijzst__-7" style="edgeStyle=none;rounded=0;orthogonalLoop=1;jettySize=auto;html=1;entryX=0;entryY=1;entryDx=0;entryDy=0;endArrow=open;endFill=0;" parent="j6knT0nZRkXW4mcYXSD3-1" source="5Is_r8HkHz4zZijzst__-6" target="5Is_r8HkHz4zZijzst__-2" edge="1">
          <mxGeometry relative="1" as="geometry" />
        </mxCell>
        <mxCell id="NPYv3bGWpOgvneqY6akO-35" style="edgeStyle=none;rounded=0;orthogonalLoop=1;jettySize=auto;html=1;entryX=0;entryY=0.75;entryDx=0;entryDy=0;endArrow=open;endFill=0;" parent="j6knT0nZRkXW4mcYXSD3-1" source="5Is_r8HkHz4zZijzst__-6" target="NPYv3bGWpOgvneqY6akO-6" edge="1">
          <mxGeometry relative="1" as="geometry" />
        </mxCell>
        <mxCell id="5Is_r8HkHz4zZijzst__-6" value="&lt;p style=&quot;line-height: 100%&quot;&gt;&amp;lt;&amp;lt;actor&amp;gt;&amp;gt;&lt;br&gt;&lt;br&gt;&lt;b&gt;Authenticated&lt;br&gt;User&lt;br&gt;&lt;br&gt;&lt;/b&gt;&lt;/p&gt;" style="text;html=1;align=center;verticalAlign=middle;dashed=0;strokeColor=#000000;strokeWidth=2;" parent="j6knT0nZRkXW4mcYXSD3-1" vertex="1">
          <mxGeometry x="220" y="160" width="80" height="77" as="geometry" />
        </mxCell>
        <mxCell id="5Is_r8HkHz4zZijzst__-8" style="edgeStyle=none;rounded=0;orthogonalLoop=1;jettySize=auto;html=1;entryX=0.5;entryY=1;entryDx=0;entryDy=0;endArrow=block;endFill=0;exitX=0.5;exitY=0;exitDx=0;exitDy=0;" parent="j6knT0nZRkXW4mcYXSD3-1" source="6PIFf8ajAKC9fmQvCD9o-5" target="5Is_r8HkHz4zZijzst__-6" edge="1">
          <mxGeometry relative="1" as="geometry">
            <mxPoint x="230" y="341.5" as="sourcePoint" />
            <mxPoint x="190" y="341.5" as="targetPoint" />
          </mxGeometry>
        </mxCell>
        <mxCell id="5Is_r8HkHz4zZijzst__-9" value="" style="fontStyle=1;align=center;verticalAlign=top;childLayout=stackLayout;horizontal=1;horizontalStack=0;resizeParent=1;resizeParentMax=0;resizeLast=0;marginBottom=0;strokeColor=#82b366;strokeWidth=2;fillColor=none;" parent="j6knT0nZRkXW4mcYXSD3-1" vertex="1">
          <mxGeometry x="560" y="220" width="110" height="63" as="geometry" />
        </mxCell>
        <mxCell id="5Is_r8HkHz4zZijzst__-10" value="Define Organisation&lt;br&gt;&amp;nbsp;as&amp;nbsp;Tenant" style="html=1;align=left;spacingLeft=4;verticalAlign=middle;strokeColor=none;fillColor=none;fontStyle=1" parent="5Is_r8HkHz4zZijzst__-9" vertex="1">
          <mxGeometry width="110" height="30" as="geometry" />
        </mxCell>
        <mxCell id="5Is_r8HkHz4zZijzst__-11" value="" style="shape=ellipse;" parent="5Is_r8HkHz4zZijzst__-10" vertex="1">
          <mxGeometry x="1" width="10" height="16" relative="1" as="geometry">
            <mxPoint x="-25" y="7" as="offset" />
          </mxGeometry>
        </mxCell>
        <mxCell id="5Is_r8HkHz4zZijzst__-12" value="" style="line;strokeWidth=1;fillColor=none;align=left;verticalAlign=middle;spacingTop=-1;spacingLeft=3;spacingRight=3;rotatable=0;labelPosition=right;points=[];portConstraint=eastwest;" parent="5Is_r8HkHz4zZijzst__-9" vertex="1">
          <mxGeometry y="30" width="110" height="8" as="geometry" />
        </mxCell>
        <mxCell id="5Is_r8HkHz4zZijzst__-13" value="." style="html=1;align=center;spacingLeft=4;verticalAlign=top;strokeColor=none;fillColor=none;" parent="5Is_r8HkHz4zZijzst__-9" vertex="1">
          <mxGeometry y="38" width="110" height="25" as="geometry" />
        </mxCell>
        <mxCell id="5Is_r8HkHz4zZijzst__-15" value="" style="fontStyle=1;align=center;verticalAlign=top;childLayout=stackLayout;horizontal=1;horizontalStack=0;resizeParent=1;resizeParentMax=0;resizeLast=0;marginBottom=0;strokeColor=#82b366;strokeWidth=2;fillColor=none;" parent="j6knT0nZRkXW4mcYXSD3-1" vertex="1">
          <mxGeometry x="440" y="310" width="110" height="63" as="geometry" />
        </mxCell>
        <mxCell id="5Is_r8HkHz4zZijzst__-16" value="Edit Organisation&lt;br&gt;Profile" style="html=1;align=left;spacingLeft=4;verticalAlign=middle;strokeColor=none;fillColor=none;fontStyle=1" parent="5Is_r8HkHz4zZijzst__-15" vertex="1">
          <mxGeometry width="110" height="30" as="geometry" />
        </mxCell>
        <mxCell id="5Is_r8HkHz4zZijzst__-17" value="" style="shape=ellipse;" parent="5Is_r8HkHz4zZijzst__-16" vertex="1">
          <mxGeometry x="1" width="10" height="16" relative="1" as="geometry">
            <mxPoint x="-25" y="7" as="offset" />
          </mxGeometry>
        </mxCell>
        <mxCell id="5Is_r8HkHz4zZijzst__-18" value="" style="line;strokeWidth=1;fillColor=none;align=left;verticalAlign=middle;spacingTop=-1;spacingLeft=3;spacingRight=3;rotatable=0;labelPosition=right;points=[];portConstraint=eastwest;" parent="5Is_r8HkHz4zZijzst__-15" vertex="1">
          <mxGeometry y="30" width="110" height="8" as="geometry" />
        </mxCell>
        <mxCell id="5Is_r8HkHz4zZijzst__-19" value="." style="html=1;align=center;spacingLeft=4;verticalAlign=top;strokeColor=none;fillColor=none;" parent="5Is_r8HkHz4zZijzst__-15" vertex="1">
          <mxGeometry y="38" width="110" height="25" as="geometry" />
        </mxCell>
        <mxCell id="5Is_r8HkHz4zZijzst__-25" value="" style="fontStyle=1;align=center;verticalAlign=top;childLayout=stackLayout;horizontal=1;horizontalStack=0;resizeParent=1;resizeParentMax=0;resizeLast=0;marginBottom=0;strokeColor=#82b366;strokeWidth=2;fillColor=none;" parent="j6knT0nZRkXW4mcYXSD3-1" vertex="1">
          <mxGeometry x="560" y="310" width="110" height="63" as="geometry" />
        </mxCell>
        <mxCell id="5Is_r8HkHz4zZijzst__-26" value="Edit Tenancy&lt;br&gt;Profile" style="html=1;align=left;spacingLeft=4;verticalAlign=middle;strokeColor=none;fillColor=none;fontStyle=1" parent="5Is_r8HkHz4zZijzst__-25" vertex="1">
          <mxGeometry width="110" height="30" as="geometry" />
        </mxCell>
        <mxCell id="5Is_r8HkHz4zZijzst__-27" value="" style="shape=ellipse;" parent="5Is_r8HkHz4zZijzst__-26" vertex="1">
          <mxGeometry x="1" width="10" height="16" relative="1" as="geometry">
            <mxPoint x="-25" y="7" as="offset" />
          </mxGeometry>
        </mxCell>
        <mxCell id="5Is_r8HkHz4zZijzst__-28" value="" style="line;strokeWidth=1;fillColor=none;align=left;verticalAlign=middle;spacingTop=-1;spacingLeft=3;spacingRight=3;rotatable=0;labelPosition=right;points=[];portConstraint=eastwest;" parent="5Is_r8HkHz4zZijzst__-25" vertex="1">
          <mxGeometry y="30" width="110" height="8" as="geometry" />
        </mxCell>
        <mxCell id="5Is_r8HkHz4zZijzst__-29" value="." style="html=1;align=center;spacingLeft=4;verticalAlign=top;strokeColor=none;fillColor=none;" parent="5Is_r8HkHz4zZijzst__-25" vertex="1">
          <mxGeometry y="38" width="110" height="25" as="geometry" />
        </mxCell>
        <mxCell id="NPYv3bGWpOgvneqY6akO-5" value="" style="fontStyle=1;align=center;verticalAlign=top;childLayout=stackLayout;horizontal=1;horizontalStack=0;resizeParent=1;resizeParentMax=0;resizeLast=0;marginBottom=0;strokeColor=#82b366;strokeWidth=2;fillColor=none;" parent="j6knT0nZRkXW4mcYXSD3-1" vertex="1">
          <mxGeometry x="320" y="150" width="110" height="63" as="geometry" />
        </mxCell>
        <mxCell id="NPYv3bGWpOgvneqY6akO-6" value="List SummarItem&lt;br&gt;of Groups" style="html=1;align=left;spacingLeft=4;verticalAlign=middle;strokeColor=none;fillColor=none;fontStyle=1" parent="NPYv3bGWpOgvneqY6akO-5" vertex="1">
          <mxGeometry width="110" height="30" as="geometry" />
        </mxCell>
        <mxCell id="NPYv3bGWpOgvneqY6akO-7" value="" style="shape=ellipse;" parent="NPYv3bGWpOgvneqY6akO-6" vertex="1">
          <mxGeometry x="1" width="10" height="16" relative="1" as="geometry">
            <mxPoint x="-25" y="7" as="offset" />
          </mxGeometry>
        </mxCell>
        <mxCell id="NPYv3bGWpOgvneqY6akO-8" value="" style="line;strokeWidth=1;fillColor=none;align=left;verticalAlign=middle;spacingTop=-1;spacingLeft=3;spacingRight=3;rotatable=0;labelPosition=right;points=[];portConstraint=eastwest;" parent="NPYv3bGWpOgvneqY6akO-5" vertex="1">
          <mxGeometry y="30" width="110" height="8" as="geometry" />
        </mxCell>
        <mxCell id="NPYv3bGWpOgvneqY6akO-9" value="." style="html=1;align=center;spacingLeft=4;verticalAlign=top;strokeColor=none;fillColor=none;" parent="NPYv3bGWpOgvneqY6akO-5" vertex="1">
          <mxGeometry y="38" width="110" height="25" as="geometry" />
        </mxCell>
        <mxCell id="NPYv3bGWpOgvneqY6akO-10" value="" style="fontStyle=1;align=center;verticalAlign=top;childLayout=stackLayout;horizontal=1;horizontalStack=0;resizeParent=1;resizeParentMax=0;resizeLast=0;marginBottom=0;strokeColor=#82b366;strokeWidth=2;fillColor=none;" parent="j6knT0nZRkXW4mcYXSD3-1" vertex="1">
          <mxGeometry x="440" y="150" width="110" height="63" as="geometry" />
        </mxCell>
        <mxCell id="NPYv3bGWpOgvneqY6akO-11" value="List SummarItem&lt;br&gt;of Organisations" style="html=1;align=left;spacingLeft=4;verticalAlign=middle;strokeColor=none;fillColor=none;fontStyle=1" parent="NPYv3bGWpOgvneqY6akO-10" vertex="1">
          <mxGeometry width="110" height="30" as="geometry" />
        </mxCell>
        <mxCell id="NPYv3bGWpOgvneqY6akO-12" value="" style="shape=ellipse;" parent="NPYv3bGWpOgvneqY6akO-11" vertex="1">
          <mxGeometry x="1" width="10" height="16" relative="1" as="geometry">
            <mxPoint x="-25" y="7" as="offset" />
          </mxGeometry>
        </mxCell>
        <mxCell id="NPYv3bGWpOgvneqY6akO-13" value="" style="line;strokeWidth=1;fillColor=none;align=left;verticalAlign=middle;spacingTop=-1;spacingLeft=3;spacingRight=3;rotatable=0;labelPosition=right;points=[];portConstraint=eastwest;" parent="NPYv3bGWpOgvneqY6akO-10" vertex="1">
          <mxGeometry y="30" width="110" height="8" as="geometry" />
        </mxCell>
        <mxCell id="NPYv3bGWpOgvneqY6akO-14" value="." style="html=1;align=center;spacingLeft=4;verticalAlign=top;strokeColor=none;fillColor=none;" parent="NPYv3bGWpOgvneqY6akO-10" vertex="1">
          <mxGeometry y="38" width="110" height="25" as="geometry" />
        </mxCell>
        <mxCell id="NPYv3bGWpOgvneqY6akO-15" value="" style="fontStyle=1;align=center;verticalAlign=top;childLayout=stackLayout;horizontal=1;horizontalStack=0;resizeParent=1;resizeParentMax=0;resizeLast=0;marginBottom=0;strokeColor=#82b366;strokeWidth=2;fillColor=none;" parent="j6knT0nZRkXW4mcYXSD3-1" vertex="1">
          <mxGeometry x="560" y="150" width="110" height="63" as="geometry" />
        </mxCell>
        <mxCell id="NPYv3bGWpOgvneqY6akO-16" value="List SummarItem&lt;br&gt;of Tenancies" style="html=1;align=left;spacingLeft=4;verticalAlign=middle;strokeColor=none;fillColor=none;fontStyle=1" parent="NPYv3bGWpOgvneqY6akO-15" vertex="1">
          <mxGeometry width="110" height="30" as="geometry" />
        </mxCell>
        <mxCell id="NPYv3bGWpOgvneqY6akO-17" value="" style="shape=ellipse;" parent="NPYv3bGWpOgvneqY6akO-16" vertex="1">
          <mxGeometry x="1" width="10" height="16" relative="1" as="geometry">
            <mxPoint x="-25" y="7" as="offset" />
          </mxGeometry>
        </mxCell>
        <mxCell id="NPYv3bGWpOgvneqY6akO-18" value="" style="line;strokeWidth=1;fillColor=none;align=left;verticalAlign=middle;spacingTop=-1;spacingLeft=3;spacingRight=3;rotatable=0;labelPosition=right;points=[];portConstraint=eastwest;" parent="NPYv3bGWpOgvneqY6akO-15" vertex="1">
          <mxGeometry y="30" width="110" height="8" as="geometry" />
        </mxCell>
        <mxCell id="NPYv3bGWpOgvneqY6akO-19" value="." style="html=1;align=center;spacingLeft=4;verticalAlign=top;strokeColor=none;fillColor=none;" parent="NPYv3bGWpOgvneqY6akO-15" vertex="1">
          <mxGeometry y="38" width="110" height="25" as="geometry" />
        </mxCell>
        <mxCell id="FQWYLf-dxle18Rmf6zbk-0" value="Title" parent="j6knT0nZRkXW4mcYXSD3-0" visible="0" />
        <mxCell id="Thl9Aeuy8pRD7U4l8nj3-15" value="&lt;font style=&quot;font-size: 12px&quot;&gt;&lt;span style=&quot;font-size: 12px&quot;&gt;Diagram: Base System Logical Module -&amp;nbsp;&lt;/span&gt;&lt;span style=&quot;font-size: 12px&quot;&gt;Functionality -&amp;nbsp;&lt;/span&gt;Groups&lt;/font&gt;" style="text;strokeColor=none;fillColor=none;html=1;fontSize=12;fontStyle=2;verticalAlign=middle;align=left;shadow=0;glass=0;comic=0;opacity=30;fontColor=#808080;" parent="FQWYLf-dxle18Rmf6zbk-0" vertex="1">
          <mxGeometry x="120" y="640" width="520" height="40" as="geometry" />
        </mxCell>
      </root>
    </mxGraphModel>
  </diagram>
</mxfile>
